# AST/ASF file generated using VICON BodyLanguage
# -----------------------------------------------
:version 1.10
:name VICON
:units
  mass 1.0
  length 0.45
  angle deg
:documentation
   .ast/.asf automatically generated from VICON data using
   VICON BodyBuilder and BodyLanguage model FoxedUp or BRILLIANT.MOD
:root
   order TX TY TZ RX RY RZ
   axis XYZ
   position 0 0 0  
   orientation 0 0 0 
:bonedata
  begin
     id 1 
     name lhipjoint
     direction 0.623415 -0.642378 0.445763 
     length 2.49859 
     axis 0 0 0  XYZ
  end
  begin
     id 2 
     name lfemur
     direction 0.34202 -0.939693 0  
     length 6.69689  
     axis 0 0 20  XYZ
    dof rx ry rz
    limits (-160.0 20.0)
           (-70.0 70.0)
           (-60.0 70.0)
  end
  begin
     id 3 
     name ltibia
     direction 0.34202 -0.939693 0   
     length 7.37574   
     axis 0 0 20   XYZ
    dof rx
    limits (-10.0 170.0)
  end
  begin
     id 4 
     name lfoot
     direction 0.084323 -0.231675 0.969132   
     length 2.09111   
     axis -90 7.62852e-016 20   XYZ
    dof rx rz
    limits (-45.0 90.0)
           (-70.0 20.0)
  end
  begin
     id 5 
     name ltoes
     direction 1.5357e-011 -4.21957e-011 1   
     length 1.04989   
     axis -90 7.62852e-016 20   XYZ
    dof rx
    limits (-90.0 20.0)
  end
  begin
     id 6 
     name rhipjoint
     direction -0.605402 -0.653903 0.45376   
     length 2.45455  
     axis 0 0 0  XYZ 
  end
  begin
     id 7 
     name rfemur
     direction -0.34202 -0.939693 0   
     length 6.64523   
     axis 0 0 -20   XYZ
    dof rx ry rz
    limits (-160.0 20.0)
           (-70.0 70.0)
           (-70.0 60.0)
  end
  begin
     id 8 
     name rtibia
     direction -0.34202 -0.939693 0   
     length 7.3339   
     axis 0 0 -20   XYZ
    dof rx
    limits (-10.0 170.0)
 end
 begin
     id 9 
     name rfoot
     direction -0.120854 -0.332043 0.93549   
     length 2.23135  
     axis -90 -7.62852e-016 -20   XYZ
    dof rx rz
    limits (-45.0 90.0)
           (-20.0 70.0)
  end
  begin
     id 10 
     name rtoes
     direction -1.53563e-011 -4.21914e-011 1   
     length 1.10614   
     axis -90 -7.62852e-016 -20   XYZ
    dof rx
    limits (-90.0 20.0)
  end
  begin
     id 11 
     name lowerback
     direction 0.0319682 0.998615 -0.0417941   
     length 2.02718   
     axis 0 0 0   XYZ
    dof rx ry rz
    limits (-20.0 45.0)
           (-30.0 30.0)
           (-30.0 30.0)
  end
  begin
     id 12 
     name upperback
     direction 7.63181e-005 0.995808 0.0914691   
     length 1.97539   
     axis 0 0 0   XYZ
    dof rx ry rz
    limits (-20.0 45.0)
           (-30.0 30.0)
           (-30.0 30.0)
  end
  begin
     id 13 
     name thorax
     direction -0.016423 0.993627 0.111514   
     length 2.00349   
     axis 0 0 0   XYZ
    dof rx ry rz
    limits (-20.0 45.0)
           (-30.0 30.0)
           (-30.0 30.0)
  end
  begin
     id 14 
     name lowerneck
     direction -0.174763 0.981668 -0.0760716   
     length 1.71436   
     axis 0 0 0   XYZ
    dof rx ry rz
    limits (-20.0 45.0)
           (-30.0 30.0)
           (-30.0 30.0)
  end
  begin
     id 15 
     name upperneck
     direction 0.345458 0.934587 -0.0848868   
     length 1.72805   
     axis 0 0 0   XYZ
    dof rx ry rz
    limits (-20.0 45.0)
           (-30.0 30.0)
           (-30.0 30.0)
  end
  begin
     id 16
     name head
     direction 0.13001 0.989848 -0.0574291  
     length 1.767  
     axis 0 0 0   XYZ
    dof rx ry rz
    limits (-20.0 45.0)
           (-30.0 30.0)
           (-30.0 30.0)
  end
  begin
     id 17 
     name lclavicle
     direction 0.952951 0.290122 0.0878234  
     length 3.54654  
     axis 0 0 0   XYZ
    dof ry rz
    limits (-20.0 10.0)
           (0.0 20.0)
  end
  begin
     id 18 
     name lhumerus
     direction 1 -4.48957e-011 -4.56525e-028   
     length 5.19807   
     axis 180 -30 -90   XYZ
    dof rx ry rz
    limits (-60.0 90.0)
           (-90.0 90.0)
           (-90.0 90.0)
  end
  begin
     id 19
     name lradius
     direction 1 -4.48979e-011 -2.0317e-027   
     length 3.0937   
     axis 180 -30 -90   XYZ
    dof rx
    limits (-10.0 170.0)
  end
  begin
     id 20
     name lwrist
     direction 1 -4.48953e-011 -3.05809e-027   
     length 1.54685   
     axis 8.48514e-016 90 90   XYZ
    dof ry
    limits (-180.0 0.0)
 end
  begin
     id 21 
     name lhand
     direction 1 -4.48952e-011 -6.11639e-027   
     length 0.672632   
     axis 3.9013e-015 90 90   XYZ
    dof rx rz
    limits (-90.0 90.0)
           (-45.0 45.0)
  end
  begin
     id 22 
     name lfingers
     direction 1 -4.48925e-011 -1.22426e-026   
     length 0.542293   
     axis 7.80276e-015 90 90   XYZ
    dof rx
    limits (0.0 90.0)
  end
  begin
     id 23
     name lthumb
     direction 0.707107 -6.3486e-011 0.707107   
     length 0.778628   
     axis -90 45 5.37419e-014   XYZ
    dof rx rz
    limits (-45.0 45.0)
           (-45.0 45.0)
  end
  begin
     id 24 
     name rclavicle
     direction -0.960732 0.273675 -0.0457849   
     length 3.52079  
     axis 0 0 0   XYZ 
    dof ry rz
    limits (-10.0 20.0)
           (-20.0 0.0)
  end
  begin
     id 25 
     name rhumerus
     direction -1 -4.48976e-011 -1.63613e-027  
     length 5.45222   
     axis 180 30 90   XYZ
    dof rx ry rz
    limits (-90.0 60.0)
           (-90.0 90.0)
           (-90.0 90.0)
  end
  begin
     id 26 
     name rradius
     direction -1 -4.48957e-011 -7.00033e-028   
     length 3.01284   
     axis 180 30 90   XYZ
    dof rx
    limits (-10.0 170.0)
  end
  begin
     id 27 
     name rwrist
     direction -1 -4.48983e-011 -3.05543e-027   
     length 1.50642   
     axis 8.48514e-016 -90 -90   XYZ
    dof ry
    limits (-180.0 0.0)
  end
  begin
     id 28
     name rhand
     direction -1 -4.48984e-011 -6.11072e-027   
     length 0.622296   
     axis 3.9013e-015 -90 -90   XYZ
    dof rx rz
    limits (-90.0 90.0)
           (-45.0 45.0)
  end
  begin
     id 29
     name rfingers
     direction -1 -4.48865e-011 -1.22637e-026   
     length 0.501711   
     axis 7.80276e-015 -90 -90   XYZ
    dof rx
    limits (0.0 90.0)
  end
  begin
     id 30
     name rthumb
     direction -0.707107 -6.34932e-011 0.707107   
     length 0.72036   
     axis -90 -45 -5.37419e-014   XYZ
    dof rx rz
    limits (-45.0 45.0)
           (-45.0 45.0)
  end
:hierarchy
  begin
    root lhipjoint rhipjoint lowerback
    lhipjoint lfemur
    lfemur ltibia
    ltibia lfoot
    lfoot ltoes
    rhipjoint rfemur
    rfemur rtibia
    rtibia rfoot
    rfoot rtoes
    lowerback upperback
    upperback thorax
    thorax lowerneck lclavicle rclavicle
    lowerneck upperneck
    upperneck head
    lclavicle lhumerus
    lhumerus lradius
    lradius lwrist
    lwrist lhand lthumb
    lhand lfingers
    rclavicle rhumerus
    rhumerus rradius
    rradius rwrist
    rwrist rhand rthumb
    rhand rfingers
  end

#!OML:ASF H:\Not Pregnant\Project 1\Capture day 1\Session 1\non-pregnant.ASF
:FULLY-SPECIFIED
:DEGREES
167
root -7.08116 15.7132 26.9375 -172.279 -1.38789 -173.332
lowerback 3.8825 3.11668 9.67057
upperback -5.62896 4.68279 0.378808
thorax -7.41394 1.63621 -5.43266
lowerneck 25.5922 -8.29263 -31.4774
upperneck -4.60809 -24.0001 39.4942
head 3.90043 -15.545 19.6937
rclavicle -9.88022e-015 2.71341e-014
rhumerus -27.5937 -2.81264 -83.6393
rradius 29.9114
rwrist 20.5809
rhand -8.59334 -0.325183
rfingers 7.12502
rthumb 17.3379 -29.5719
lclavicle -9.88022e-015 2.71341e-014
lhumerus -43.5022 -3.2054 85.4849
lradius 38.3075
lwrist 38.6356
lhand -14.6049 -11.7144
lfingers 7.12502
lthumb 11.5458 17.9476
rfemur -7.89565 1.04022 31.8542
rtibia 25.0434
rfoot -21.697 22.3002
rtoes 7.41283
lfemur -49.1405 0.612182 -10.7277
ltibia 25.414
lfoot -11.2374 -5.29852
ltoes -24.1208
168
root -7.09526 15.6985 26.8084 -172.338 -1.24055 -173.244
lowerback 3.7763 3.11257 9.71312
upperback -5.62577 4.66534 0.408005
thorax -7.35083 1.62816 -5.41609
lowerneck 25.5018 -8.27296 -31.4802
upperneck -4.43428 -24.015 39.4318
head 3.95644 -15.5467 19.648
rclavicle -2.78858e-014 -1.72943e-014
rhumerus -27.8058 -2.88743 -83.6862
rradius 29.7518
rwrist 20.7962
rhand -8.46127 -0.192616
rfingers 7.12502
rthumb 17.465 -29.4281
lclavicle -2.78858e-014 -1.72943e-014
lhumerus -43.715 -2.94364 85.2462
lradius 37.7019
lwrist 38.292
lhand -14.6386 -11.6203
lfingers 7.12502
lthumb 11.5133 18.0435
rfemur -7.18065 1.1245 31.8681
rtibia 24.7849
rfoot -21.5809 22.5978
rtoes 7.40259
lfemur -49.4097 0.690378 -10.6479
ltibia 24.9892
lfoot -10.7618 -5.74992
ltoes -23.6593
169
root -7.11012 15.6816 26.6777 -172.399 -1.11756 -173.148
lowerback 3.67001 3.10119 9.76673
upperback -5.63205 4.63854 0.441063
thorax -7.29919 1.6135 -5.40121
lowerneck 25.4309 -8.24235 -31.492
upperneck -4.26883 -24.0272 39.3824
head 4.00964 -15.5514 19.6153
rclavicle -3.79617e-014 -2.5842e-014
rhumerus -28.0557 -3.0028 -83.7099
rradius 29.5748
rwrist 21.0234
rhand -8.35283 -0.114649
rfingers 7.12502
rthumb 17.5693 -29.3408
lclavicle -3.79617e-014 -2.5842e-014
lhumerus -43.9274 -2.67024 85.0025
lradius 37.0488
lwrist 37.9052
lhand -14.6769 -11.473
lfingers 7.12502
lthumb 11.4764 18.1929
rfemur -6.48306 1.20192 31.8841
rtibia 24.5712
rfoot -21.4512 22.9175
rtoes 7.37908
lfemur -49.6452 0.860535 -10.6499
ltibia 24.6806
lfoot -10.1717 -6.40077
ltoes -23.1015
170
root -7.12574 15.663 26.5453 -172.459 -1.02331 -173.053
lowerback 3.56481 3.08202 9.82537
upperback -5.64432 4.60144 0.473419
thorax -7.25609 1.59256 -5.3895
lowerneck 25.3463 -8.22206 -31.4972
upperneck -4.09414 -24.0512 39.325
head 4.07004 -15.5601 19.5718
rclavicle -3.32343e-015 -3.77691e-015
rhumerus -28.3325 -3.15916 -83.7105
rradius 29.3757
rwrist 21.2599
rhand -8.28428 -0.0679654
rfingers 7.12502
rthumb 17.6353 -29.2882
lclavicle -3.32343e-015 -3.77691e-015
lhumerus -44.121 -2.39444 84.7559
lradius 36.3351
lwrist 37.4934
lhand -14.7264 -11.3012
lfingers 7.12502
lthumb 11.4286 18.3673
rfemur -5.80592 1.26066 31.8928
rtibia 24.4025
rfoot -21.2719 23.2727
rtoes 7.40781
lfemur -49.83 1.0311 -10.6726
ltibia 24.4698
lfoot -9.40494 -7.25734
ltoes -22.4306
171
root -7.14221 15.643 26.4113 -172.517 -0.952651 -172.961
lowerback 3.45757 3.05571 9.88529
upperback -5.66669 4.55417 0.50558
thorax -7.22442 1.56512 -5.37828
lowerneck 25.255 -8.20429 -31.501
upperneck -3.9016 -24.0818 39.2555
head 4.13671 -15.5707 19.5191
rclavicle -4.70126e-014 -6.36111e-015
rhumerus -28.6486 -3.34843 -83.6878
rradius 29.1643
rwrist 21.5036
rhand -8.22864 -0.0960798
rfingers 7.12502
rthumb 17.6888 -29.3115
lclavicle -4.70126e-014 -6.36111e-015
lhumerus -44.3034 -2.10862 84.504
lradius 35.5614
lwrist 37.0513
lhand -14.7584 -11.1324
lfingers 7.12502
lthumb 11.3978 18.5378
rfemur -5.14925 1.30698 31.8897
rtibia 24.2753
rfoot -21.0507 23.6598
rtoes 7.48972
lfemur -49.952 1.09604 -10.6292
ltibia 24.3398
lfoot -8.38836 -8.30913
ltoes -21.5752
